<svg width="151" height="24" viewBox="0 0 151 24" fill="none" xmlns="http://www.w3.org/2000/svg">
<path d="M1.70337 23.888C1.18337 23.888 0.784701 23.7493 0.507367 23.472C0.230034 23.1947 0.0913673 22.7873 0.0913673 22.25V7.716C0.0913673 7.17867 0.230034 6.77133 0.507367 6.494C0.784701 6.21667 1.1747 6.078 1.67737 6.078C2.19737 6.078 2.59603 6.21667 2.87337 6.494C3.1507 6.77133 3.28937 7.17867 3.28937 7.716V9.744L3.00337 8.964C3.26337 8.08 3.79203 7.36933 4.58937 6.832C5.40403 6.29467 6.3487 6.026 7.42337 6.026C8.5327 6.026 9.50337 6.29467 10.3354 6.832C11.1847 7.36933 11.8434 8.132 12.3114 9.12C12.7794 10.0907 13.0134 11.2607 13.0134 12.63C13.0134 13.982 12.7794 15.1607 12.3114 16.166C11.8434 17.154 11.1934 17.9167 10.3614 18.454C9.52937 18.9913 8.55003 19.26 7.42337 19.26C6.36603 19.26 5.4387 19 4.64137 18.48C3.84403 17.9427 3.3067 17.2493 3.02937 16.4H3.34137V22.25C3.34137 22.7873 3.19403 23.1947 2.89937 23.472C2.62203 23.7493 2.22337 23.888 1.70337 23.888ZM6.51337 16.79C7.1547 16.79 7.71803 16.634 8.20337 16.322C8.6887 16.01 9.06137 15.5507 9.32137 14.944C9.5987 14.32 9.73737 13.5487 9.73737 12.63C9.73737 11.2433 9.4427 10.212 8.85337 9.536C8.26403 8.84267 7.48403 8.496 6.51337 8.496C5.87203 8.496 5.3087 8.652 4.82337 8.964C4.33803 9.25867 3.9567 9.718 3.67937 10.342C3.41937 10.9487 3.28937 11.7113 3.28937 12.63C3.28937 13.9993 3.58403 15.0393 4.17337 15.75C4.7627 16.4433 5.5427 16.79 6.51337 16.79ZM21.4792 19.26C20.1619 19.26 19.0179 18.9913 18.0472 18.454C17.0765 17.9167 16.3225 17.154 15.7852 16.166C15.2479 15.1607 14.9792 13.982 14.9792 12.63C14.9792 11.6073 15.1265 10.6973 15.4212 9.9C15.7332 9.08533 16.1752 8.392 16.7472 7.82C17.3192 7.23067 18.0039 6.78867 18.8012 6.494C19.5985 6.182 20.4912 6.026 21.4792 6.026C22.7965 6.026 23.9405 6.29467 24.9112 6.832C25.8819 7.36933 26.6359 8.132 27.1732 9.12C27.7105 10.108 27.9792 11.278 27.9792 12.63C27.9792 13.6527 27.8232 14.5713 27.5112 15.386C27.2165 16.2007 26.7832 16.9027 26.2112 17.492C25.6392 18.064 24.9545 18.506 24.1572 18.818C23.3599 19.1127 22.4672 19.26 21.4792 19.26ZM21.4792 16.79C22.1205 16.79 22.6839 16.634 23.1692 16.322C23.6545 16.01 24.0272 15.5507 24.2872 14.944C24.5645 14.32 24.7032 13.5487 24.7032 12.63C24.7032 11.2433 24.4085 10.212 23.8192 9.536C23.2299 8.84267 22.4499 8.496 21.4792 8.496C20.8379 8.496 20.2745 8.652 19.7892 8.964C19.3039 9.25867 18.9225 9.718 18.6452 10.342C18.3852 10.9487 18.2552 11.7113 18.2552 12.63C18.2552 13.9993 18.5499 15.0393 19.1392 15.75C19.7285 16.4433 20.5085 16.79 21.4792 16.79ZM32.3257 19.208C31.7883 19.208 31.3723 19.0693 31.0777 18.792C30.8003 18.4973 30.6617 18.0813 30.6617 17.544V7.716C30.6617 7.17867 30.8003 6.77133 31.0777 6.494C31.355 6.21667 31.745 6.078 32.2477 6.078C32.7503 6.078 33.1403 6.21667 33.4177 6.494C33.695 6.77133 33.8337 7.17867 33.8337 7.716V9.354H33.5737C33.8163 8.314 34.293 7.52533 35.0037 6.988C35.7143 6.45067 36.659 6.13 37.8377 6.026C38.2017 5.99133 38.4877 6.08667 38.6957 6.312C38.921 6.52 39.051 6.84933 39.0857 7.3C39.1203 7.73333 39.0163 8.08867 38.7737 8.366C38.5483 8.626 38.2017 8.782 37.7337 8.834L37.1617 8.886C36.1043 8.99 35.307 9.31933 34.7697 9.874C34.2323 10.4113 33.9637 11.174 33.9637 12.162V17.544C33.9637 18.0813 33.825 18.4973 33.5477 18.792C33.2703 19.0693 32.863 19.208 32.3257 19.208ZM47.4036 19.26C46.277 19.26 45.3323 19.0693 44.5696 18.688C43.8243 18.3067 43.2696 17.752 42.9056 17.024C42.5416 16.2787 42.3596 15.36 42.3596 14.268V8.73H41.0076C40.5916 8.73 40.271 8.626 40.0456 8.418C39.8203 8.19267 39.7076 7.88933 39.7076 7.508C39.7076 7.10933 39.8203 6.806 40.0456 6.598C40.271 6.39 40.5916 6.286 41.0076 6.286H42.3596V3.92C42.3596 3.38267 42.4983 2.97533 42.7756 2.698C43.0703 2.42067 43.4776 2.282 43.9976 2.282C44.5176 2.282 44.9163 2.42067 45.1936 2.698C45.471 2.97533 45.6096 3.38267 45.6096 3.92V6.286H48.3656C48.7816 6.286 49.1023 6.39 49.3276 6.598C49.553 6.806 49.6656 7.10933 49.6656 7.508C49.6656 7.88933 49.553 8.19267 49.3276 8.418C49.1023 8.626 48.7816 8.73 48.3656 8.73H45.6096V14.086C45.6096 14.918 45.7916 15.542 46.1556 15.958C46.5196 16.374 47.109 16.582 47.9236 16.582C48.2183 16.582 48.4783 16.556 48.7036 16.504C48.929 16.452 49.1283 16.4173 49.3016 16.4C49.5096 16.3827 49.683 16.452 49.8216 16.608C49.9603 16.7467 50.0296 17.0413 50.0296 17.492C50.0296 17.8387 49.969 18.1507 49.8476 18.428C49.7436 18.688 49.5443 18.87 49.2496 18.974C49.0243 19.0433 48.7296 19.104 48.3656 19.156C48.0016 19.2253 47.681 19.26 47.4036 19.26ZM52.0522 19.208C51.6362 19.208 51.2982 19.1127 51.0382 18.922C50.7955 18.7313 50.6482 18.48 50.5962 18.168C50.5442 17.8387 50.6048 17.4747 50.7782 17.076L57.6422 1.866C57.8675 1.36333 58.1362 1.008 58.4482 0.799999C58.7775 0.574665 59.1502 0.461998 59.5662 0.461998C59.9648 0.461998 60.3202 0.574665 60.6322 0.799999C60.9615 1.008 61.2388 1.36333 61.4642 1.866L68.3542 17.076C68.5448 17.4747 68.6142 17.8387 68.5622 18.168C68.5102 18.4973 68.3628 18.7573 68.1202 18.948C67.8775 19.1213 67.5568 19.208 67.1582 19.208C66.6728 19.208 66.2915 19.0953 66.0142 18.87C65.7542 18.6273 65.5202 18.2633 65.3122 17.778L63.6222 13.852L65.0262 14.762H54.0542L55.4582 13.852L53.7942 17.778C53.5688 18.2807 53.3348 18.6447 53.0922 18.87C52.8495 19.0953 52.5028 19.208 52.0522 19.208ZM59.5142 4.284L55.8742 12.942L55.1982 12.11H63.8822L63.2322 12.942L59.5662 4.284H59.5142ZM72.8818 19.208C72.3445 19.208 71.9285 19.0607 71.6338 18.766C71.3565 18.454 71.2178 18.0293 71.2178 17.492V2.36C71.2178 1.80533 71.3652 1.38933 71.6598 1.112C71.9545 0.817332 72.3705 0.669999 72.9078 0.669999H79.1738C81.1845 0.669999 82.7358 1.17267 83.8278 2.178C84.9198 3.18333 85.4658 4.58733 85.4658 6.39C85.4658 8.19267 84.9198 9.60533 83.8278 10.628C82.7358 11.6333 81.1845 12.136 79.1738 12.136H74.5458V17.492C74.5458 18.0293 74.4072 18.454 74.1298 18.766C73.8525 19.0607 73.4365 19.208 72.8818 19.208ZM74.5458 9.51H78.6538C79.8325 9.51 80.7252 9.25 81.3318 8.73C81.9385 8.19267 82.2418 7.41267 82.2418 6.39C82.2418 5.36733 81.9385 4.596 81.3318 4.076C80.7252 3.556 79.8325 3.296 78.6538 3.296H74.5458V9.51ZM89.8428 19.208C89.3054 19.208 88.8894 19.0607 88.5948 18.766C88.3174 18.454 88.1788 18.0293 88.1788 17.492V2.36C88.1788 1.80533 88.3261 1.38933 88.6208 1.112C88.9154 0.817332 89.3314 0.669999 89.8688 0.669999H96.1348C98.1454 0.669999 99.6968 1.17267 100.789 2.178C101.881 3.18333 102.427 4.58733 102.427 6.39C102.427 8.19267 101.881 9.60533 100.789 10.628C99.6968 11.6333 98.1454 12.136 96.1348 12.136H91.5068V17.492C91.5068 18.0293 91.3681 18.454 91.0908 18.766C90.8134 19.0607 90.3974 19.208 89.8428 19.208ZM91.5068 9.51H95.6148C96.7934 9.51 97.6861 9.25 98.2928 8.73C98.8994 8.19267 99.2028 7.41267 99.2028 6.39C99.2028 5.36733 98.8994 4.596 98.2928 4.076C97.6861 3.556 96.7934 3.296 95.6148 3.296H91.5068V9.51ZM109.991 19.26C108.674 19.26 107.53 18.9913 106.559 18.454C105.588 17.9167 104.834 17.154 104.297 16.166C103.76 15.1607 103.491 13.982 103.491 12.63C103.491 11.6073 103.638 10.6973 103.933 9.9C104.245 9.08533 104.687 8.392 105.259 7.82C105.831 7.23067 106.516 6.78867 107.313 6.494C108.11 6.182 109.003 6.026 109.991 6.026C111.308 6.026 112.452 6.29467 113.423 6.832C114.394 7.36933 115.148 8.132 115.685 9.12C116.222 10.108 116.491 11.278 116.491 12.63C116.491 13.6527 116.335 14.5713 116.023 15.386C115.728 16.2007 115.295 16.9027 114.723 17.492C114.151 18.064 113.466 18.506 112.669 18.818C111.872 19.1127 110.979 19.26 109.991 19.26ZM109.991 16.79C110.632 16.79 111.196 16.634 111.681 16.322C112.166 16.01 112.539 15.5507 112.799 14.944C113.076 14.32 113.215 13.5487 113.215 12.63C113.215 11.2433 112.92 10.212 112.331 9.536C111.742 8.84267 110.962 8.496 109.991 8.496C109.35 8.496 108.786 8.652 108.301 8.964C107.816 9.25867 107.434 9.718 107.157 10.342C106.897 10.9487 106.767 11.7113 106.767 12.63C106.767 13.9993 107.062 15.0393 107.651 15.75C108.24 16.4433 109.02 16.79 109.991 16.79ZM120.837 19.208C120.3 19.208 119.884 19.0693 119.589 18.792C119.312 18.4973 119.173 18.0813 119.173 17.544V7.716C119.173 7.17867 119.312 6.77133 119.589 6.494C119.867 6.21667 120.257 6.078 120.759 6.078C121.262 6.078 121.652 6.21667 121.929 6.494C122.207 6.77133 122.345 7.17867 122.345 7.716V9.354H122.085C122.328 8.314 122.805 7.52533 123.515 6.988C124.226 6.45067 125.171 6.13 126.349 6.026C126.713 5.99133 126.999 6.08667 127.207 6.312C127.433 6.52 127.563 6.84933 127.597 7.3C127.632 7.73333 127.528 8.08867 127.285 8.366C127.06 8.626 126.713 8.782 126.245 8.834L125.673 8.886C124.616 8.99 123.819 9.31933 123.281 9.874C122.744 10.4113 122.475 11.174 122.475 12.162V17.544C122.475 18.0813 122.337 18.4973 122.059 18.792C121.782 19.0693 121.375 19.208 120.837 19.208ZM135.915 19.26C134.789 19.26 133.844 19.0693 133.081 18.688C132.336 18.3067 131.781 17.752 131.417 17.024C131.053 16.2787 130.871 15.36 130.871 14.268V8.73H129.519C129.103 8.73 128.783 8.626 128.557 8.418C128.332 8.19267 128.219 7.88933 128.219 7.508C128.219 7.10933 128.332 6.806 128.557 6.598C128.783 6.39 129.103 6.286 129.519 6.286H130.871V3.92C130.871 3.38267 131.01 2.97533 131.287 2.698C131.582 2.42067 131.989 2.282 132.509 2.282C133.029 2.282 133.428 2.42067 133.705 2.698C133.983 2.97533 134.121 3.38267 134.121 3.92V6.286H136.877C137.293 6.286 137.614 6.39 137.839 6.598C138.065 6.806 138.177 7.10933 138.177 7.508C138.177 7.88933 138.065 8.19267 137.839 8.418C137.614 8.626 137.293 8.73 136.877 8.73H134.121V14.086C134.121 14.918 134.303 15.542 134.667 15.958C135.031 16.374 135.621 16.582 136.435 16.582C136.73 16.582 136.99 16.556 137.215 16.504C137.441 16.452 137.64 16.4173 137.813 16.4C138.021 16.3827 138.195 16.452 138.333 16.608C138.472 16.7467 138.541 17.0413 138.541 17.492C138.541 17.8387 138.481 18.1507 138.359 18.428C138.255 18.688 138.056 18.87 137.761 18.974C137.536 19.0433 137.241 19.104 136.877 19.156C136.513 19.2253 136.193 19.26 135.915 19.26ZM144.256 19.26C143.337 19.26 142.514 19.0867 141.786 18.74C141.075 18.376 140.512 17.8907 140.096 17.284C139.697 16.6773 139.498 15.9927 139.498 15.23C139.498 14.294 139.741 13.5573 140.226 13.02C140.711 12.4653 141.5 12.0667 142.592 11.824C143.684 11.5813 145.149 11.46 146.986 11.46H148.286V13.332H147.012C145.937 13.332 145.079 13.384 144.438 13.488C143.797 13.592 143.337 13.774 143.06 14.034C142.8 14.2767 142.67 14.6233 142.67 15.074C142.67 15.646 142.869 16.114 143.268 16.478C143.667 16.842 144.221 17.024 144.932 17.024C145.504 17.024 146.007 16.894 146.44 16.634C146.891 16.3567 147.246 15.984 147.506 15.516C147.766 15.048 147.896 14.5107 147.896 13.904V10.914C147.896 10.0473 147.705 9.42333 147.324 9.042C146.943 8.66067 146.301 8.47 145.4 8.47C144.897 8.47 144.351 8.53067 143.762 8.652C143.19 8.77333 142.583 8.98133 141.942 9.276C141.613 9.432 141.318 9.47533 141.058 9.406C140.815 9.33667 140.625 9.198 140.486 8.99C140.347 8.76467 140.278 8.522 140.278 8.262C140.278 8.002 140.347 7.75067 140.486 7.508C140.625 7.248 140.859 7.05733 141.188 6.936C141.985 6.60667 142.748 6.37267 143.476 6.234C144.221 6.09533 144.897 6.026 145.504 6.026C146.752 6.026 147.775 6.21667 148.572 6.598C149.387 6.97933 149.993 7.56 150.392 8.34C150.791 9.10267 150.99 10.0907 150.99 11.304V17.544C150.99 18.0813 150.86 18.4973 150.6 18.792C150.34 19.0693 149.967 19.208 149.482 19.208C148.997 19.208 148.615 19.0693 148.338 18.792C148.078 18.4973 147.948 18.0813 147.948 17.544V16.296H148.156C148.035 16.9027 147.792 17.4313 147.428 17.882C147.081 18.3153 146.639 18.6533 146.102 18.896C145.565 19.1387 144.949 19.26 144.256 19.26Z" fill="#5F5F5F"/>
</svg>
